<svg width="12" height="15" viewBox="0 0 12 15" fill="none" xmlns="http://www.w3.org/2000/svg">
<path d="M10.0198 2.21914C8.9112 1.11053 7.4372 0.5 5.86947 0.5C4.30171 0.5 2.82777 1.11051 1.71911 2.21914C0.610534 3.32771 0 4.8016 0 6.36936C0 7.93712 0.610534 9.41106 1.71911 10.5197L5.57946 14.3799C5.65955 14.46 5.76452 14.5 5.86947 14.5C5.97444 14.5 6.07941 14.4599 6.15948 14.3799L10.0197 10.5197C11.1283 9.41109 11.7388 7.93715 11.7388 6.36939C11.7388 4.80157 11.1283 3.32768 10.0198 2.21914ZM7.71277 8.21261C7.22042 8.70496 6.56581 8.97613 5.8695 8.97613C5.17318 8.97613 4.51857 8.70499 4.02625 8.21264C3.53387 7.72028 3.26272 7.06567 3.26272 6.36936C3.26272 5.67307 3.53387 5.01846 4.02625 4.52608C4.51857 4.03373 5.17318 3.76259 5.8695 3.76259C6.56581 3.76259 7.22042 4.03373 7.71277 4.52608C8.20513 5.01841 8.4763 5.67302 8.4763 6.36933C8.47627 7.06564 8.2051 7.72028 7.71277 8.21261Z" fill="#DB242D"/>
</svg>
